<svg version="1.1" id="Layer_1" xmlns="http://www.w3.org/2000/svg" xmlns:xlink="http://www.w3.org/1999/xlink" x="0px" y="0px"
	 width="100%" viewBox="0 0 500 500" enable-background="new 0 0 500 500" xml:space="preserve">
<!-- <path fill="#000000" opacity="1.000000" stroke="none" 
	d="
M333.000000,501.000000 
	C222.000031,501.000000 111.500053,501.000000 1.000059,501.000000 
	C1.000040,334.333405 1.000040,167.666794 1.000020,1.000149 
	C167.666565,1.000099 334.333130,1.000099 500.999756,1.000050 
	C500.999847,167.666519 500.999847,334.333038 500.999939,500.999786 
	C445.166656,501.000000 389.333344,501.000000 333.000000,501.000000 
M116.365509,319.671906 
	C118.570900,323.692383 120.820656,327.689240 122.973656,331.737579 
	C130.586258,346.051666 141.573273,357.600098 153.743561,367.929504 
	C170.314621,381.994049 188.544586,392.907867 210.014297,398.598175 
	C233.396042,404.795227 256.716766,406.904053 280.518585,402.804962 
	C289.562592,401.247467 298.894348,400.101624 307.381531,396.885559 
	C318.229584,392.774811 328.685974,387.313873 338.674255,381.365326 
	C345.023346,377.584106 350.215240,371.859772 356.414001,366.542542 
	C361.436157,361.447296 367.222565,356.899750 371.338928,351.155396 
	C384.333740,333.021332 394.451263,313.809937 397.946106,291.007019 
	C400.953888,271.381989 402.126465,251.999954 400.410187,232.342865 
	C399.681000,223.991013 399.569580,224.000443 391.317902,224.000427 
	C352.355682,224.000305 313.393433,224.018356 274.431274,223.980377 
	C268.786194,223.974869 263.140991,223.713516 257.496613,223.545761 
	C254.991241,223.471298 253.475372,224.075806 253.522202,227.146347 
	C253.772690,243.581314 253.860275,260.018768 253.998550,276.455444 
	C254.016159,278.547882 254.000977,280.640564 254.000977,283.404663 
	C281.661316,283.404663 308.663361,283.404663 335.723785,283.404663 
	C331.835205,302.839966 320.793854,316.718872 305.289398,328.161652 
	C293.455109,335.347412 280.739288,340.529022 266.997375,341.961273 
	C244.232513,344.333984 223.072342,339.744843 203.960480,326.255646 
	C186.106888,313.654480 174.563629,296.892761 167.619919,275.693665 
	C163.625610,263.140320 163.333084,250.342560 165.312302,237.448471 
	C166.101440,232.307434 167.333679,227.234390 168.876816,221.647339 
	C170.462967,217.718613 171.636612,213.555984 173.708206,209.902527 
	C181.755371,195.710663 191.619568,183.072678 205.689011,174.222000 
	C216.496307,167.423431 227.817764,162.310867 240.757507,160.825943 
	C252.333725,159.497513 263.852417,159.108017 275.049530,162.215408 
	C284.292267,164.780426 293.637177,167.573029 301.302582,173.971603 
	C304.195160,176.386154 307.590088,178.200409 310.471527,180.626236 
	C312.709381,182.510208 314.189423,182.065140 315.911987,180.119125 
	C319.391846,176.187820 322.796570,172.168518 326.530182,168.487686 
	C335.161530,159.978333 344.021790,151.701584 352.686005,143.225006 
	C357.084259,138.922012 356.786804,135.900558 351.957916,132.024063 
	C350.192902,130.607162 348.531525,129.037521 346.659058,127.781853 
	C330.247833,116.776711 313.685242,106.152496 293.581055,102.926399 
	C285.608673,101.647087 277.745392,99.687653 269.357544,97.356110 
	C259.572327,97.515228 249.787140,97.674355 239.182068,98.006378 
	C237.932190,98.336723 236.698074,98.754395 235.429916,98.983589 
	C225.328629,100.809235 214.919891,101.619019 205.179626,104.610100 
	C186.607880,110.313171 170.018723,120.253830 155.375092,132.931046 
	C147.115356,140.081635 139.668228,148.295090 132.595261,156.655975 
	C126.053528,164.388870 119.916832,172.608841 116.253067,182.943909 
	C114.861359,185.531586 113.225632,188.019775 112.122612,190.725143 
	C108.468872,199.686707 104.988655,208.643051 104.252815,218.529419 
	C103.507950,228.537048 101.526382,238.453171 100.796066,248.461136 
	C100.367508,254.333862 101.052940,260.338165 101.720734,266.228485 
	C102.666222,274.568298 103.219788,283.093445 105.475914,291.107208 
	C108.162209,300.648956 112.473343,309.733276 116.365509,319.671906 
z"/> -->
<path fill="#E54335" opacity="1.000000" stroke="none" 
	d="
M116.917694,182.595779 
	C119.916832,172.608841 126.053528,164.388870 132.595261,156.655975 
	C139.668228,148.295090 147.115356,140.081635 155.375092,132.931046 
	C170.018723,120.253830 186.607880,110.313171 205.179626,104.610100 
	C214.919891,101.619019 225.328629,100.809235 235.429916,98.983589 
	C236.698074,98.754395 237.932190,98.336723 240.056763,97.978897 
	C250.565125,97.980232 260.198792,98.009048 269.832458,98.037872 
	C277.745392,99.687653 285.608673,101.647087 293.581055,102.926399 
	C313.685242,106.152496 330.247833,116.776711 346.659058,127.781853 
	C348.531525,129.037521 350.192902,130.607162 351.957916,132.024063 
	C356.786804,135.900558 357.084259,138.922012 352.686005,143.225006 
	C344.021790,151.701584 335.161530,159.978333 326.530182,168.487686 
	C322.796570,172.168518 319.391846,176.187820 315.911987,180.119125 
	C314.189423,182.065140 312.709381,182.510208 310.471527,180.626236 
	C307.590088,178.200409 304.195160,176.386154 301.302582,173.971603 
	C293.637177,167.573029 284.292267,164.780426 275.049530,162.215408 
	C263.852417,159.108017 252.333725,159.497513 240.757507,160.825943 
	C227.817764,162.310867 216.496307,167.423431 205.689011,174.222000 
	C191.619568,183.072678 181.755371,195.710663 173.708206,209.902527 
	C171.636612,213.555984 170.462967,217.718613 168.295746,221.736893 
	C150.782349,208.749557 133.850021,195.672668 116.917694,182.595779 
z"/>
<path fill="#35A253" opacity="1.000000" stroke="none" 
	d="
M355.926025,367.006775 
	C350.215240,371.859772 345.023346,377.584106 338.674255,381.365326 
	C328.685974,387.313873 318.229584,392.774811 307.381531,396.885559 
	C298.894348,400.101624 289.562592,401.247467 280.518585,402.804962 
	C256.716766,406.904053 233.396042,404.795227 210.014297,398.598175 
	C188.544586,392.907867 170.314621,381.994049 153.743561,367.929504 
	C141.573273,357.600098 130.586258,346.051666 122.973656,331.737579 
	C120.820656,327.689240 118.570900,323.692383 116.577789,319.346985 
	C121.212624,316.159760 125.865852,313.594910 130.013992,310.378662 
	C141.950714,301.123688 153.750809,291.687439 165.412643,282.089233 
	C166.904037,280.861725 167.257492,278.251617 168.138123,276.282013 
	C174.563629,296.892761 186.106888,313.654480 203.960480,326.255646 
	C223.072342,339.744843 244.232513,344.333984 266.997375,341.961273 
	C280.739288,340.529022 293.455109,335.347412 305.790649,328.413086 
	C309.705872,331.565002 312.996521,334.627533 316.555847,337.337036 
	C329.630981,347.290375 342.795288,357.126526 355.926025,367.006775 
z"/>
<path fill="#4280EF" opacity="1.000000" stroke="none" 
	d="
M356.170013,366.774658 
	C342.795288,357.126526 329.630981,347.290375 316.555847,337.337036 
	C312.996521,334.627533 309.705872,331.565002 306.145782,328.366211 
	C320.793854,316.718872 331.835205,302.839966 335.723785,283.404663 
	C308.663361,283.404663 281.661316,283.404663 254.000977,283.404663 
	C254.000977,280.640564 254.016159,278.547882 253.998550,276.455444 
	C253.860275,260.018768 253.772690,243.581314 253.522202,227.146347 
	C253.475372,224.075806 254.991241,223.471298 257.496613,223.545761 
	C263.140991,223.713516 268.786194,223.974869 274.431274,223.980377 
	C313.393433,224.018356 352.355682,224.000305 391.317902,224.000427 
	C399.569580,224.000443 399.681000,223.991013 400.410187,232.342865 
	C402.126465,251.999954 400.953888,271.381989 397.946106,291.007019 
	C394.451263,313.809937 384.333740,333.021332 371.338928,351.155396 
	C367.222565,356.899750 361.436157,361.447296 356.170013,366.774658 
z"/>
<path fill="#F6B704" opacity="1.000000" stroke="none" 
	d="
M167.879028,275.987854 
	C167.257492,278.251617 166.904037,280.861725 165.412643,282.089233 
	C153.750809,291.687439 141.950714,301.123688 130.013992,310.378662 
	C125.865852,313.594910 121.212624,316.159760 116.435287,319.018921 
	C112.473343,309.733276 108.162209,300.648956 105.475914,291.107208 
	C103.219788,283.093445 102.666222,274.568298 101.720734,266.228485 
	C101.052940,260.338165 100.367508,254.333862 100.796066,248.461136 
	C101.526382,238.453171 103.507950,228.537048 104.252815,218.529419 
	C104.988655,208.643051 108.468872,199.686707 112.122612,190.725143 
	C113.225632,188.019775 114.861359,185.531586 116.585388,182.769836 
	C133.850021,195.672668 150.782349,208.749557 168.039429,221.978424 
	C167.333679,227.234390 166.101440,232.307434 165.312302,237.448471 
	C163.333084,250.342560 163.625610,263.140320 167.879028,275.987854 
z"/>
<path fill="#47704C" opacity="1.000000" stroke="none" 
	d="
M269.595001,97.696991 
	C260.198792,98.009048 250.565125,97.980232 240.466705,97.892448 
	C249.787140,97.674355 259.572327,97.515228 269.595001,97.696991 
z"/>
</svg>