<svg version="1.1" id="Layer_1" xmlns="http://www.w3.org/2000/svg" xmlns:xlink="http://www.w3.org/1999/xlink" x="0px" y="0px"
	 width="100%" viewBox="0 0 936 936" enable-background="new 0 0 936 936" xml:space="preserve">
<path fill="#FFFFFF" opacity="1.000000" stroke="none" 
	d="
M622.000000,937.000000 
	C414.666656,937.000000 207.833328,937.000000 1.000000,937.000000 
	C1.000000,625.000000 1.000000,313.000000 1.000000,1.000000 
	C313.000000,1.000000 625.000000,1.000000 937.000000,1.000000 
	C937.000000,313.000000 937.000000,625.000000 937.000000,937.000000 
	C832.166687,937.000000 727.333313,937.000000 622.000000,937.000000 
M429.254822,203.881577 
	C427.800171,204.251740 426.345490,204.621918 424.108795,205.038040 
	C384.706451,213.975830 350.783356,232.943497 323.039886,262.168518 
	C283.352814,303.974915 264.717773,354.064087 266.950653,411.716583 
	C267.605408,428.622742 275.743469,441.399292 291.017670,448.650848 
	C306.462891,455.983643 321.638062,454.200287 335.220215,443.762421 
	C346.359161,435.202240 351.609375,423.447205 351.231689,409.351898 
	C350.467896,380.849701 356.981812,354.866058 375.134399,331.966797 
	C397.028656,304.347412 424.793671,288.181793 460.030487,285.866913 
	C470.582458,285.173737 481.259369,286.382568 492.637115,286.989075 
	C493.081116,287.209259 493.502716,287.534576 493.972321,287.634613 
	C521.098511,293.413971 542.989319,307.617706 560.259521,329.090637 
	C570.370178,341.661804 577.556763,355.756866 581.721680,371.803223 
	C579.732117,372.577881 578.087891,373.300171 576.391724,373.866730 
	C512.334717,395.263275 448.266907,416.627686 384.215759,438.041748 
	C367.538696,443.617371 350.911377,449.341858 333.441132,454.992371 
	C298.852295,463.657471 287.155731,498.591919 309.373474,526.359924 
	C338.048004,562.197693 373.921997,587.043030 418.664185,598.366821 
	C437.938324,603.244934 457.558685,606.158875 477.450623,604.101135 
	C498.679291,601.905029 514.303528,583.255920 513.956543,561.652954 
	C513.617554,540.548096 497.251587,522.750854 476.155090,520.757080 
	C470.533173,520.225769 464.723022,520.916260 459.242401,519.825012 
	C448.900635,517.765991 438.735352,514.820435 429.281097,512.001770 
	C499.516785,488.594971 569.733093,465.129883 640.002014,441.823273 
	C657.158020,436.132996 669.719788,420.790741 669.971497,403.413452 
	C670.096375,394.790161 669.712463,386.056213 668.464661,377.532471 
	C656.803345,297.873627 613.495361,242.851807 538.898315,212.711746 
	C527.131836,207.957642 514.921753,203.886871 501.244965,203.549408 
	C495.771240,203.010422 490.297516,202.471420 484.526825,201.267975 
	C483.142273,200.890747 481.761444,200.203537 480.372589,200.187027 
	C471.889404,200.086166 463.366302,199.637161 454.930725,200.279358 
	C446.554047,200.917099 438.264862,202.703827 429.996643,204.018066 
	C429.996643,204.018066 430.031616,203.960709 429.254822,203.881577 
M461.310974,694.505371 
	C461.232117,688.176697 461.361877,681.837036 461.030060,675.521667 
	C460.379608,663.142273 454.077667,654.923462 443.219635,652.526184 
	C430.845642,649.794189 420.111176,652.793945 411.699799,662.641663 
	C410.866974,663.616699 410.360168,664.870239 409.293091,666.693176 
	C403.955994,655.416748 395.700378,651.814148 385.480621,651.569397 
	C375.221558,651.323792 367.062347,655.841309 359.818787,664.031555 
	C359.573608,659.686768 359.400696,656.622925 359.235229,653.690857 
	C354.694031,653.690857 350.771057,653.690857 346.734711,653.690857 
	C346.734711,681.922913 346.734711,709.812988 346.734711,737.708496 
	C351.519318,737.708496 355.951141,737.708496 360.885315,737.708496 
	C360.885315,735.652893 360.878815,733.858276 360.886261,732.063660 
	C360.944916,717.903564 360.773285,703.736572 361.194153,689.587219 
	C361.339752,684.690918 362.293854,679.581726 364.053101,675.022888 
	C367.106537,667.110535 376.193604,662.923584 385.141205,664.389526 
	C392.418854,665.581909 395.749603,669.727722 396.539673,679.676025 
	C397.013062,685.637329 396.761475,691.658997 396.772156,697.653625 
	C396.795868,710.962646 396.779541,724.271606 396.779541,737.600098 
	C401.748871,737.600098 406.302368,737.600098 411.078522,737.600098 
	C411.078522,723.890015 410.982727,710.569885 411.122864,697.252380 
	C411.183990,691.441284 411.172089,685.537415 412.173340,679.848145 
	C414.068878,669.077087 423.963745,662.594299 434.778656,664.360352 
	C441.468750,665.452759 445.762909,669.423828 446.127258,676.267456 
	C446.701996,687.063843 446.667053,697.895569 446.769623,708.713440 
	C446.860992,718.348328 446.788818,727.984802 446.788818,737.711914 
	C451.817902,737.711914 456.394714,737.711914 461.310638,737.711914 
	C461.310638,723.457031 461.310638,709.480225 461.310974,694.505371 
M532.566101,704.499878 
	C532.566101,715.586365 532.566101,726.672913 532.566101,737.643127 
	C537.722351,737.643127 542.136902,737.643127 546.894531,737.643127 
	C546.894531,721.991577 546.826111,706.685547 546.941345,691.380920 
	C546.971252,687.405701 547.181335,683.352600 547.989624,679.477356 
	C550.290100,668.448486 560.913086,661.994019 571.892029,664.635315 
	C577.741577,666.042603 581.671387,670.008850 581.946899,676.138306 
	C582.447754,687.278503 582.461365,698.442749 582.567383,709.597961 
	C582.655823,718.903503 582.585449,728.210510 582.585449,737.713501 
	C587.585510,737.713501 592.143921,737.713501 596.787842,737.713501 
	C596.787842,716.475281 597.257812,695.500305 596.607178,674.560059 
	C596.231750,662.478455 589.816162,655.163574 579.488037,652.684753 
	C567.164856,649.727173 556.387756,652.511536 547.783508,662.226257 
	C546.818542,663.315796 545.798340,664.356323 544.577637,665.661255 
	C539.852600,655.486328 531.599609,651.855408 521.378906,651.571594 
	C511.073425,651.285400 502.870392,655.761597 495.544922,664.126648 
	C495.331390,659.800232 495.179504,656.722839 495.035370,653.802368 
	C490.556976,653.802368 486.505798,653.802368 482.481659,653.802368 
	C482.481659,682.018127 482.481659,709.781921 482.481659,737.767578 
	C487.213623,737.767578 491.642426,737.767578 496.347748,737.767578 
	C496.465424,736.324219 496.655273,735.032776 496.663147,733.740356 
	C496.753510,718.910339 496.562347,704.072205 497.026978,689.254395 
	C497.184998,684.214478 498.260681,678.929504 500.184418,674.280945 
	C503.310699,666.726379 512.488159,662.885010 521.236267,664.443359 
	C528.207458,665.685242 531.633606,669.908386 532.262268,679.522095 
	C532.783142,687.487183 532.495728,695.505249 532.566101,704.499878 
M633.236633,717.043518 
	C630.090454,711.819458 628.403076,706.228699 628.723755,699.392517 
	C639.222168,699.392517 649.488525,699.392456 659.754944,699.392456 
	C670.172974,699.392456 680.591064,699.392517 690.834290,699.392517 
	C690.834290,694.709900 691.279419,690.674255 690.756104,686.768311 
	C688.660461,671.126160 681.586792,658.673279 665.784790,653.732483 
	C649.998718,648.796753 635.316040,651.380066 623.724792,664.100464 
	C614.582275,674.133606 613.008972,686.656799 613.336243,699.610901 
	C614.009705,726.268005 632.407410,742.457031 658.921204,739.705322 
	C675.389893,737.996216 687.449890,727.695618 690.338257,712.455994 
	C686.893799,712.036194 683.421753,711.822571 680.044739,711.139221 
	C676.996094,710.522400 675.545959,711.672241 674.406006,714.382202 
	C666.518433,733.133362 641.983032,731.114258 633.236633,717.043518 
M58.219318,739.388855 
	C64.172974,739.220825 70.251709,739.763672 76.055275,738.742554 
	C89.803658,736.323547 100.455338,725.343628 102.274178,712.428955 
	C97.678452,711.894226 93.091118,711.360413 88.658112,710.844543 
	C78.525345,726.990845 68.961380,731.483643 56.314648,726.254761 
	C46.127628,722.042847 39.171913,709.791260 41.406631,699.299316 
	C61.844799,699.299316 82.396980,699.299316 102.884796,699.299316 
	C102.884796,694.831482 103.312599,690.815857 102.809845,686.920288 
	C100.762161,671.053772 93.562233,658.504211 77.534538,653.622375 
	C61.734505,648.809753 46.599503,651.140808 35.683758,664.415894 
	C22.597628,680.330383 22.681101,698.901855 29.251606,717.372375 
	C33.803947,730.169556 43.976631,737.088135 58.219318,739.388855 
M859.629333,699.392944 
	C878.903198,699.392944 898.177063,699.392944 918.523499,699.392944 
	C917.674255,692.513489 917.552002,686.155640 916.034363,680.150513 
	C909.134705,652.850464 876.910034,642.229553 854.781189,659.740540 
	C836.414734,674.274231 834.541138,713.084656 851.419556,729.374756 
	C862.598389,740.163940 883.380432,743.268982 898.154602,736.380005 
	C908.305969,731.646729 914.204834,723.590027 917.393127,712.532898 
	C913.772278,712.073914 910.758789,711.957153 907.884644,711.263123 
	C903.921448,710.306152 901.909119,711.678162 900.346741,715.399109 
	C897.849670,721.346375 893.363342,725.393005 886.954224,727.145264 
	C871.030762,731.498840 855.342590,719.356323 855.008911,702.533875 
	C854.948547,699.491211 856.450317,699.272400 859.629333,699.392944 
M328.763611,707.288757 
	C329.100311,703.645874 329.588409,700.009766 329.749786,696.359131 
	C331.042938,667.107605 311.234497,648.278076 282.948334,652.188110 
	C270.093903,653.965027 260.390900,660.663574 254.734772,672.667236 
	C246.531128,690.077515 249.531769,716.876831 261.434418,728.672546 
	C272.625854,739.763489 286.375183,742.250305 301.173279,738.390259 
	C316.684204,734.344238 325.837708,723.987915 328.763611,707.288757 
M759.161377,705.510315 
	C762.648254,728.626343 778.640320,741.762878 800.925903,739.817261 
	C817.533691,738.367310 831.576111,724.413452 831.721558,708.745178 
	C827.414246,708.164124 823.049255,707.575256 818.436218,706.952942 
	C817.855225,709.124329 817.424316,710.869141 816.921082,712.592712 
	C814.461609,721.016052 809.260925,726.619324 800.310364,727.780518 
	C790.909119,729.000244 782.600647,726.222961 778.255554,717.541016 
	C771.251831,703.546936 771.105591,688.807739 777.951172,674.722168 
	C782.024292,666.341309 790.008423,662.929321 799.242371,663.561646 
	C808.304443,664.182251 813.692627,669.603577 816.317139,678.059448 
	C816.553650,678.821594 816.933167,679.539429 817.337646,680.493042 
	C821.876343,679.817078 826.257629,679.164551 830.791992,678.489197 
	C830.690552,677.382935 830.719299,676.720093 830.560364,676.105835 
	C826.993896,662.330200 817.444702,653.771362 803.777344,652.073242 
	C786.152771,649.883423 771.509155,656.353699 764.452332,669.637329 
	C758.603455,680.647095 757.683716,692.479248 759.161377,705.510315 
M171.289185,680.664734 
	C170.987274,689.433167 169.538803,698.344116 170.608154,706.942017 
	C173.324234,728.780518 190.219772,741.718018 211.951614,739.815796 
	C228.580780,738.360229 242.569931,724.469543 242.759506,708.743103 
	C238.458786,708.165283 234.100128,707.579651 229.519867,706.964294 
	C228.919846,709.147766 228.465012,710.887878 227.963318,712.614319 
	C225.510986,721.052856 220.287903,726.626648 211.339737,727.782104 
	C201.936935,728.996338 193.634094,726.214783 189.287415,717.532166 
	C182.279343,703.533447 182.172470,688.791199 188.999344,674.710693 
	C193.064117,666.327148 201.064026,662.924133 210.296631,663.561951 
	C219.356415,664.187805 224.743149,669.616760 227.375137,678.066101 
	C227.612000,678.826538 227.982849,679.545105 228.380600,680.496277 
	C232.924805,679.816406 237.302658,679.161438 242.083786,678.446106 
	C239.615585,667.483887 234.580276,659.183105 224.389206,654.708618 
	C202.077179,644.912231 178.761993,656.005249 171.289185,680.664734 
M753.002075,655.204834 
	C740.089050,648.390869 729.755920,651.029114 722.001526,665.420410 
	C721.769531,660.271851 721.617554,656.900208 721.476379,653.767822 
	C716.901428,653.767822 713.000793,653.767822 708.952148,653.767822 
	C708.952148,681.965576 708.952148,709.742493 708.952148,737.710449 
	C713.746643,737.710449 718.318848,737.710449 723.297791,737.710449 
	C723.297791,723.289673 723.204407,709.147278 723.352478,695.007385 
	C723.399292,690.536499 723.668823,685.985291 724.566528,681.621094 
	C727.486633,667.425964 735.233398,663.448486 748.590942,668.915100 
	C748.850098,669.021118 749.214600,668.869934 750.546997,668.738281 
	C751.512451,664.578796 752.558411,660.072449 753.002075,655.204834 
M126.511780,688.773071 
	C122.566673,688.773071 118.621574,688.773071 114.487442,688.773071 
	C114.487442,693.724182 114.487442,698.118713 114.487442,702.734070 
	C129.164093,702.734070 143.542526,702.734070 158.154114,702.734070 
	C158.154114,698.030273 158.154114,693.605225 158.154114,688.772949 
	C147.768524,688.772949 137.638763,688.772949 126.511780,688.773071 
z"/>
<path fill="#0C48AA" opacity="1.000000" stroke="none" 
	d="
M501.867065,204.070068 
	C514.921753,203.886871 527.131836,207.957642 538.898315,212.711746 
	C613.495361,242.851807 656.803345,297.873627 668.464661,377.532471 
	C669.712463,386.056213 670.096375,394.790161 669.971497,403.413452 
	C669.719788,420.790741 657.158020,436.132996 640.002014,441.823273 
	C569.733093,465.129883 499.516785,488.594971 428.542084,512.072266 
	C426.684906,511.869476 425.514069,511.727448 424.456451,511.303131 
	C406.976929,504.290588 392.414856,493.236328 380.115875,479.096466 
	C376.198975,474.593292 372.829529,469.529022 368.489899,465.495880 
	C358.888672,456.572723 347.035034,454.061615 334.261230,454.997955 
	C350.911377,449.341858 367.538696,443.617371 384.215759,438.041748 
	C448.266907,416.627686 512.334717,395.263275 576.391724,373.866730 
	C578.087891,373.300171 579.732117,372.577881 581.721680,371.803223 
	C577.556763,355.756866 570.370178,341.661804 560.259521,329.090637 
	C542.989319,307.617706 521.098511,293.413971 493.972321,287.634613 
	C493.502716,287.534576 493.081116,287.209259 492.586670,286.658569 
	C493.186218,286.201660 493.834015,286.062622 494.486450,285.950714 
	C526.137390,280.523376 540.536926,244.517029 521.510254,218.674866 
	C516.392151,211.723404 509.315674,207.723160 501.867065,204.070068 
z"/>
<path fill="#01CCFF" opacity="1.000000" stroke="none" 
	d="
M501.556030,203.809738 
	C509.315674,207.723160 516.392151,211.723404 521.510254,218.674866 
	C540.536926,244.517029 526.137390,280.523376 494.486450,285.950714 
	C493.834015,286.062622 493.186218,286.201660 492.207642,286.524017 
	C481.259369,286.382568 470.582458,285.173737 460.030487,285.866913 
	C424.793671,288.181793 397.028656,304.347412 375.134399,331.966797 
	C356.981812,354.866058 350.467896,380.849701 351.231689,409.351898 
	C351.609375,423.447205 346.359161,435.202240 335.220215,443.762421 
	C321.638062,454.200287 306.462891,455.983643 291.017670,448.650848 
	C275.743469,441.399292 267.605408,428.622742 266.950653,411.716583 
	C264.717773,354.064087 283.352814,303.974915 323.039886,262.168518 
	C350.783356,232.943497 384.706451,213.975830 424.897217,205.042648 
	C427.134277,204.685074 428.582947,204.322891 430.031616,203.960709 
	C430.031616,203.960709 429.996643,204.018066 430.405457,204.044250 
	C438.222687,203.203506 445.615143,201.823364 453.043304,201.592438 
	C463.623047,201.263550 474.229034,201.778152 484.823792,201.932434 
	C490.297516,202.471420 495.771240,203.010422 501.556030,203.809738 
z"/>
<path fill="#01CCFF" opacity="1.000000" stroke="none" 
	d="
M333.851196,454.995178 
	C347.035034,454.061615 358.888672,456.572723 368.489899,465.495880 
	C372.829529,469.529022 376.198975,474.593292 380.115875,479.096466 
	C392.414856,493.236328 406.976929,504.290588 424.456451,511.303131 
	C425.514069,511.727448 426.684906,511.869476 428.149902,512.193054 
	C438.735352,514.820435 448.900635,517.765991 459.242401,519.825012 
	C464.723022,520.916260 470.533173,520.225769 476.155090,520.757080 
	C497.251587,522.750854 513.617554,540.548096 513.956543,561.652954 
	C514.303528,583.255920 498.679291,601.905029 477.450623,604.101135 
	C457.558685,606.158875 437.938324,603.244934 418.664185,598.366821 
	C373.921997,587.043030 338.048004,562.197693 309.373474,526.359924 
	C287.155731,498.591919 298.852295,463.657471 333.851196,454.995178 
z"/>
<path fill="#124CAB" opacity="1.000000" stroke="none" 
	d="
M461.310791,695.004395 
	C461.310638,709.480225 461.310638,723.457031 461.310638,737.711914 
	C456.394714,737.711914 451.817902,737.711914 446.788818,737.711914 
	C446.788818,727.984802 446.860992,718.348328 446.769623,708.713440 
	C446.667053,697.895569 446.701996,687.063843 446.127258,676.267456 
	C445.762909,669.423828 441.468750,665.452759 434.778656,664.360352 
	C423.963745,662.594299 414.068878,669.077087 412.173340,679.848145 
	C411.172089,685.537415 411.183990,691.441284 411.122864,697.252380 
	C410.982727,710.569885 411.078522,723.890015 411.078522,737.600098 
	C406.302368,737.600098 401.748871,737.600098 396.779541,737.600098 
	C396.779541,724.271606 396.795868,710.962646 396.772156,697.653625 
	C396.761475,691.658997 397.013062,685.637329 396.539673,679.676025 
	C395.749603,669.727722 392.418854,665.581909 385.141205,664.389526 
	C376.193604,662.923584 367.106537,667.110535 364.053101,675.022888 
	C362.293854,679.581726 361.339752,684.690918 361.194153,689.587219 
	C360.773285,703.736572 360.944916,717.903564 360.886261,732.063660 
	C360.878815,733.858276 360.885315,735.652893 360.885315,737.708496 
	C355.951141,737.708496 351.519318,737.708496 346.734711,737.708496 
	C346.734711,709.812988 346.734711,681.922913 346.734711,653.690857 
	C350.771057,653.690857 354.694031,653.690857 359.235229,653.690857 
	C359.400696,656.622925 359.573608,659.686768 359.818787,664.031555 
	C367.062347,655.841309 375.221558,651.323792 385.480621,651.569397 
	C395.700378,651.814148 403.955994,655.416748 409.293091,666.693176 
	C410.360168,664.870239 410.866974,663.616699 411.699799,662.641663 
	C420.111176,652.793945 430.845642,649.794189 443.219635,652.526184 
	C454.077667,654.923462 460.379608,663.142273 461.030060,675.521667 
	C461.361877,681.837036 461.232117,688.176697 461.310791,695.004395 
z"/>
<path fill="#124CAB" opacity="1.000000" stroke="none" 
	d="
M532.566284,703.999878 
	C532.495728,695.505249 532.783142,687.487183 532.262268,679.522095 
	C531.633606,669.908386 528.207458,665.685242 521.236267,664.443359 
	C512.488159,662.885010 503.310699,666.726379 500.184418,674.280945 
	C498.260681,678.929504 497.184998,684.214478 497.026978,689.254395 
	C496.562347,704.072205 496.753510,718.910339 496.663147,733.740356 
	C496.655273,735.032776 496.465424,736.324219 496.347748,737.767578 
	C491.642426,737.767578 487.213623,737.767578 482.481659,737.767578 
	C482.481659,709.781921 482.481659,682.018127 482.481659,653.802368 
	C486.505798,653.802368 490.556976,653.802368 495.035370,653.802368 
	C495.179504,656.722839 495.331390,659.800232 495.544922,664.126648 
	C502.870392,655.761597 511.073425,651.285400 521.378906,651.571594 
	C531.599609,651.855408 539.852600,655.486328 544.577637,665.661255 
	C545.798340,664.356323 546.818542,663.315796 547.783508,662.226257 
	C556.387756,652.511536 567.164856,649.727173 579.488037,652.684753 
	C589.816162,655.163574 596.231750,662.478455 596.607178,674.560059 
	C597.257812,695.500305 596.787842,716.475281 596.787842,737.713501 
	C592.143921,737.713501 587.585510,737.713501 582.585449,737.713501 
	C582.585449,728.210510 582.655823,718.903503 582.567383,709.597961 
	C582.461365,698.442749 582.447754,687.278503 581.946899,676.138306 
	C581.671387,670.008850 577.741577,666.042603 571.892029,664.635315 
	C560.913086,661.994019 550.290100,668.448486 547.989624,679.477356 
	C547.181335,683.352600 546.971252,687.405701 546.941345,691.380920 
	C546.826111,706.685547 546.894531,721.991577 546.894531,737.643127 
	C542.136902,737.643127 537.722351,737.643127 532.566101,737.643127 
	C532.566101,726.672913 532.566101,715.586365 532.566284,703.999878 
z"/>
<path fill="#114BAB" opacity="1.000000" stroke="none" 
	d="
M633.449585,717.345093 
	C641.983032,731.114258 666.518433,733.133362 674.406006,714.382202 
	C675.545959,711.672241 676.996094,710.522400 680.044739,711.139221 
	C683.421753,711.822571 686.893799,712.036194 690.338257,712.455994 
	C687.449890,727.695618 675.389893,737.996216 658.921204,739.705322 
	C632.407410,742.457031 614.009705,726.268005 613.336243,699.610901 
	C613.008972,686.656799 614.582275,674.133606 623.724792,664.100464 
	C635.316040,651.380066 649.998718,648.796753 665.784790,653.732483 
	C681.586792,658.673279 688.660461,671.126160 690.756104,686.768311 
	C691.279419,690.674255 690.834290,694.709900 690.834290,699.392517 
	C680.591064,699.392517 670.172974,699.392456 659.754944,699.392456 
	C649.488525,699.392456 639.222168,699.392517 628.723755,699.392517 
	C628.403076,706.228699 630.090454,711.819458 633.449585,717.345093 
M675.893555,686.379578 
	C674.498535,671.601379 664.539246,662.351562 651.162354,663.410278 
	C638.426392,664.418213 628.774963,675.037659 629.453125,687.779724 
	C638.542236,687.779724 647.662842,687.850952 656.781738,687.755249 
	C663.058716,687.689270 669.333313,687.392029 675.893555,686.379578 
z"/>
<path fill="#114BAB" opacity="1.000000" stroke="none" 
	d="
M57.793182,739.288696 
	C43.976631,737.088135 33.803947,730.169556 29.251606,717.372375 
	C22.681101,698.901855 22.597628,680.330383 35.683758,664.415894 
	C46.599503,651.140808 61.734505,648.809753 77.534538,653.622375 
	C93.562233,658.504211 100.762161,671.053772 102.809845,686.920288 
	C103.312599,690.815857 102.884796,694.831482 102.884796,699.299316 
	C82.396980,699.299316 61.844799,699.299316 41.406631,699.299316 
	C39.171913,709.791260 46.127628,722.042847 56.314648,726.254761 
	C68.961380,731.483643 78.525345,726.990845 88.658112,710.844543 
	C93.091118,711.360413 97.678452,711.894226 102.274178,712.428955 
	C100.455338,725.343628 89.803658,736.323547 76.055275,738.742554 
	C70.251709,739.763672 64.172974,739.220825 57.793182,739.288696 
M46.508827,672.086609 
	C44.368835,676.972290 42.228844,681.857971 39.761295,687.491455 
	C56.830292,687.491455 72.243187,687.491455 87.641212,687.491455 
	C88.116302,677.489258 82.963341,669.015076 74.296761,665.234131 
	C65.077911,661.212341 54.730106,663.597900 46.508827,672.086609 
z"/>
<path fill="#114CAB" opacity="1.000000" stroke="none" 
	d="
M859.148438,699.392822 
	C856.450317,699.272400 854.948547,699.491211 855.008911,702.533875 
	C855.342590,719.356323 871.030762,731.498840 886.954224,727.145264 
	C893.363342,725.393005 897.849670,721.346375 900.346741,715.399109 
	C901.909119,711.678162 903.921448,710.306152 907.884644,711.263123 
	C910.758789,711.957153 913.772278,712.073914 917.393127,712.532898 
	C914.204834,723.590027 908.305969,731.646729 898.154602,736.380005 
	C883.380432,743.268982 862.598389,740.163940 851.419556,729.374756 
	C834.541138,713.084656 836.414734,674.274231 854.781189,659.740540 
	C876.910034,642.229553 909.134705,652.850464 916.034363,680.150513 
	C917.552002,686.155640 917.674255,692.513489 918.523499,699.392944 
	C898.177063,699.392944 878.903198,699.392944 859.148438,699.392822 
M901.893982,682.065674 
	C899.355408,667.973511 886.185059,661.356812 874.443420,663.912231 
	C863.106201,666.379639 854.570984,677.337830 856.276306,687.539185 
	C871.488770,687.539185 886.713013,687.539185 902.339111,687.539185 
	C902.225647,685.824524 902.129639,684.373108 901.893982,682.065674 
z"/>
<path fill="#124DAC" opacity="1.000000" stroke="none" 
	d="
M328.705780,707.713257 
	C325.837708,723.987915 316.684204,734.344238 301.173279,738.390259 
	C286.375183,742.250305 272.625854,739.763489 261.434418,728.672546 
	C249.531769,716.876831 246.531128,690.077515 254.734772,672.667236 
	C260.390900,660.663574 270.093903,653.965027 282.948334,652.188110 
	C311.234497,648.278076 331.042938,667.107605 329.749786,696.359131 
	C329.588409,700.009766 329.100311,703.645874 328.705780,707.713257 
M298.175140,664.881897 
	C284.483643,660.865479 272.393768,666.379883 267.795410,679.289124 
	C263.811768,690.472534 263.936890,701.919678 268.084564,713.059143 
	C271.648956,722.632080 280.059235,728.039856 290.184174,727.993469 
	C300.010284,727.948425 308.174805,722.493164 311.807831,713.100952 
	C315.585693,703.334290 315.773376,693.252686 313.406281,683.131531 
	C311.473663,674.868103 306.818085,668.683228 298.175140,664.881897 
z"/>
<path fill="#134DAC" opacity="1.000000" stroke="none" 
	d="
M759.112061,705.072449 
	C757.683716,692.479248 758.603455,680.647095 764.452332,669.637329 
	C771.509155,656.353699 786.152771,649.883423 803.777344,652.073242 
	C817.444702,653.771362 826.993896,662.330200 830.560364,676.105835 
	C830.719299,676.720093 830.690552,677.382935 830.791992,678.489197 
	C826.257629,679.164551 821.876343,679.817078 817.337646,680.493042 
	C816.933167,679.539429 816.553650,678.821594 816.317139,678.059448 
	C813.692627,669.603577 808.304443,664.182251 799.242371,663.561646 
	C790.008423,662.929321 782.024292,666.341309 777.951172,674.722168 
	C771.105591,688.807739 771.251831,703.546936 778.255554,717.541016 
	C782.600647,726.222961 790.909119,729.000244 800.310364,727.780518 
	C809.260925,726.619324 814.461609,721.016052 816.921082,712.592712 
	C817.424316,710.869141 817.855225,709.124329 818.436218,706.952942 
	C823.049255,707.575256 827.414246,708.164124 831.721558,708.745178 
	C831.576111,724.413452 817.533691,738.367310 800.925903,739.817261 
	C778.640320,741.762878 762.648254,728.626343 759.112061,705.072449 
z"/>
<path fill="#134DAC" opacity="1.000000" stroke="none" 
	d="
M171.383316,680.267334 
	C178.761993,656.005249 202.077179,644.912231 224.389206,654.708618 
	C234.580276,659.183105 239.615585,667.483887 242.083786,678.446106 
	C237.302658,679.161438 232.924805,679.816406 228.380600,680.496277 
	C227.982849,679.545105 227.612000,678.826538 227.375137,678.066101 
	C224.743149,669.616760 219.356415,664.187805 210.296631,663.561951 
	C201.064026,662.924133 193.064117,666.327148 188.999344,674.710693 
	C182.172470,688.791199 182.279343,703.533447 189.287415,717.532166 
	C193.634094,726.214783 201.936935,728.996338 211.339737,727.782104 
	C220.287903,726.626648 225.510986,721.052856 227.963318,712.614319 
	C228.465012,710.887878 228.919846,709.147766 229.519867,706.964294 
	C234.100128,707.579651 238.458786,708.165283 242.759506,708.743103 
	C242.569931,724.469543 228.580780,738.360229 211.951614,739.815796 
	C190.219772,741.718018 173.324234,728.780518 170.608154,706.942017 
	C169.538803,698.344116 170.987274,689.433167 171.383316,680.267334 
z"/>
<path fill="#124DAC" opacity="1.000000" stroke="none" 
	d="
M753.303223,655.385437 
	C752.558411,660.072449 751.512451,664.578796 750.546997,668.738281 
	C749.214600,668.869934 748.850098,669.021118 748.590942,668.915100 
	C735.233398,663.448486 727.486633,667.425964 724.566528,681.621094 
	C723.668823,685.985291 723.399292,690.536499 723.352478,695.007385 
	C723.204407,709.147278 723.297791,723.289673 723.297791,737.710449 
	C718.318848,737.710449 713.746643,737.710449 708.952148,737.710449 
	C708.952148,709.742493 708.952148,681.965576 708.952148,653.767822 
	C713.000793,653.767822 716.901428,653.767822 721.476379,653.767822 
	C721.617554,656.900208 721.769531,660.271851 722.001526,665.420410 
	C729.755920,651.029114 740.089050,648.390869 753.303223,655.385437 
z"/>
<path fill="#104BAB" opacity="1.000000" stroke="none" 
	d="
M127.010384,688.773010 
	C137.638763,688.772949 147.768524,688.772949 158.154114,688.772949 
	C158.154114,693.605225 158.154114,698.030273 158.154114,702.734070 
	C143.542526,702.734070 129.164093,702.734070 114.487442,702.734070 
	C114.487442,698.118713 114.487442,693.724182 114.487442,688.773071 
	C118.621574,688.773071 122.566673,688.773071 127.010384,688.773010 
z"/>
<path fill="#5690CE" opacity="1.000000" stroke="none" 
	d="
M484.675293,201.600189 
	C474.229034,201.778152 463.623047,201.263550 453.043304,201.592438 
	C445.615143,201.823364 438.222687,203.203506 430.375793,204.028564 
	C438.264862,202.703827 446.554047,200.917099 454.930725,200.279358 
	C463.366302,199.637161 471.889404,200.086166 480.372589,200.187027 
	C481.761444,200.203537 483.142273,200.890747 484.675293,201.600189 
z"/>
<path fill="#5690CE" opacity="1.000000" stroke="none" 
	d="
M429.643219,203.921143 
	C428.582947,204.322891 427.134277,204.685074 425.288208,205.019669 
	C426.345490,204.621918 427.800171,204.251740 429.643219,203.921143 
z"/>
<path fill="#F6F8FC" opacity="1.000000" stroke="none" 
	d="
M675.751221,686.788879 
	C669.333313,687.392029 663.058716,687.689270 656.781738,687.755249 
	C647.662842,687.850952 638.542236,687.779724 629.453125,687.779724 
	C628.774963,675.037659 638.426392,664.418213 651.162354,663.410278 
	C664.539246,662.351562 674.498535,671.601379 675.751221,686.788879 
z"/>
<path fill="#F6F8FC" opacity="1.000000" stroke="none" 
	d="
M46.743382,671.809448 
	C54.730106,663.597900 65.077911,661.212341 74.296761,665.234131 
	C82.963341,669.015076 88.116302,677.489258 87.641212,687.491455 
	C72.243187,687.491455 56.830292,687.491455 39.761295,687.491455 
	C42.228844,681.857971 44.368835,676.972290 46.743382,671.809448 
z"/>
<path fill="#F7F9FC" opacity="1.000000" stroke="none" 
	d="
M901.963806,682.493652 
	C902.129639,684.373108 902.225647,685.824524 902.339111,687.539185 
	C886.713013,687.539185 871.488770,687.539185 856.276306,687.539185 
	C854.570984,677.337830 863.106201,666.379639 874.443420,663.912231 
	C886.185059,661.356812 899.355408,667.973511 901.963806,682.493652 
z"/>
<path fill="#FBFCFE" opacity="1.000000" stroke="none" 
	d="
M298.552856,665.020508 
	C306.818085,668.683228 311.473663,674.868103 313.406281,683.131531 
	C315.773376,693.252686 315.585693,703.334290 311.807831,713.100952 
	C308.174805,722.493164 300.010284,727.948425 290.184174,727.993469 
	C280.059235,728.039856 271.648956,722.632080 268.084564,713.059143 
	C263.936890,701.919678 263.811768,690.472534 267.795410,679.289124 
	C272.393768,666.379883 284.483643,660.865479 298.552856,665.020508 
z"/>
</svg>